<svg id="Layouts" xmlns="http://www.w3.org/2000/svg" viewBox="0 0 54 54"><defs><style>.cls-1{fill:#673d55;}</style></defs><title>Mike-Mi-Sa-logo-cutout</title><g id="Option_1" data-name="Option 1"><g id="photos"><path class="cls-1" d="M0,0V54H54.33V0H0ZM9,14.34L18,9l9,6.23L36,9l9,5.35v2.76L36,11.8l-9,6.28L18,11.8,9,17.1V14.34Zm0,5.3H45v2.52H9V19.64ZM32.59,28V25.44H45V28H32.59ZM45,34.53v2.94L38.85,32.6l-6.27,5V34.62l6.27-5Zm-15.69,9.9-6.22-4.93-6.54,5.18V41.75L23,36.6V36.53l0,0,0,0V36.6l6.18,4.89v2.94Zm0-6.87L23,32.6l-7.9,6.26L9,34V31.05l6.15,4.87L23,29.66l6.27,5v2.94Zm0-9.61H9V25.44H29.31V28ZM45,44.37l-4.93-3.9v4.22H37.55V40.54l-5,3.93V41.53l6.22-4.93V36.53l0,0,0,0V36.6L45,41.43v2.94Z"/></g></g></svg>