<svg id="Layouts" xmlns="http://www.w3.org/2000/svg" viewBox="0 0 54 54"><defs><style>.cls-1{fill:#673d55;}.cls-2{fill:#fff;}</style></defs><title>Mike-Mi-Sa-Logo</title><g id="Option_1" data-name="Option 1"><g id="photos"><path class="cls-1" d="M0,0V54H54.33V0H0Z"/><rect class="cls-2" x="9" y="19.64" width="36" height="2.52"/><polygon class="cls-2" points="45 17.11 36.03 11.8 26.99 18.08 17.97 11.8 9 17.1 9 14.34 18.03 9 26.99 15.23 35.97 9 45 14.35 45 17.11"/><polygon class="cls-2" points="38.9 36.6 38.9 36.53 38.85 36.57 38.81 36.53 38.81 36.6 32.59 41.53 32.59 44.47 37.55 40.54 37.55 44.68 37.98 44.68 39.73 44.68 40.07 44.68 40.07 40.47 45 44.37 45 41.43 38.9 36.6"/><polygon class="cls-2" points="38.85 29.66 32.59 34.62 32.59 37.56 38.85 32.6 45 37.47 45 34.53 38.85 29.66"/><rect class="cls-2" x="32.59" y="25.44" width="12.41" height="2.52"/><rect class="cls-2" x="9" y="25.44" width="20.31" height="2.52"/><polygon class="cls-2" points="29.31 34.62 23.05 29.66 15.15 35.92 9 31.05 9 33.99 15.15 38.86 23.05 32.6 29.31 37.56 29.31 34.62"/><polygon class="cls-2" points="29.31 41.49 23.14 36.6 23.14 36.53 23.09 36.57 23.05 36.53 23.05 36.6 16.55 41.74 16.55 44.68 23.09 39.51 29.31 44.43 29.31 41.49"/></g></g></svg>