<svg width="61px" height="60px" viewBox="0 0 61 60" xmlns="http://www.w3.org/2000/svg">
    <g id="Page-1" stroke="none" stroke-width="1" fill="none" fill-rule="evenodd">
        <path d="M30.5258256,0 L0,0 L0,60 L61,60 L61,0 L30.5258256,0 L30.5258256,0 Z M32.7,45.1 L26.8,40.4 L20.9,45.1 L20.9,42.8 L26.8,38.1 L26.8,38 L26.8,38 L26.8,38 L26.8,38.1 L32.7,42.8 L32.7,45.1 L32.7,45.1 L32.7,45.1 Z M32.7,39.4 L26.7,34.7 L19.5,40.3 L13.9,35.9 L13.9,33.6 L19.5,38 L26.7,32.3 L32.7,37 L32.7,39.4 L32.7,39.4 L32.7,39.4 Z M32.7,30.9 L13.9,30.9 L13.9,29 L32.6,29 L32.7,30.9 L32.7,30.9 L32.7,30.9 Z M46.7,44.8 L41.9,41 L41.9,45.1 L40.3,45.1 L40.3,41 L35.1,45.1 L35.1,42.9 L41,38.2 L41,38.1 L41,38.1 L41,38.1 L41,38.2 L46.7,42.6 C46.7,42.5 46.7,44.8 46.7,44.8 L46.7,44.8 Z M46.7,39.1 L41.1,34.7 L35.1,39.4 L35.1,37.2 L41.1,32.5 L46.7,36.9 L46.7,39.1 L46.7,39.1 Z M46.7,30.9 L35.1,30.9 L35.1,29 L46.7,29 L46.7,30.9 L46.7,30.9 Z M46.7,26.2 L13.9,26.2 L13.9,24.3 L46.7,24.3 C46.7,24.3 46.7,26.2 46.7,26.2 L46.7,26.2 Z M46.7,22.1 L38.5,17.3 L30.3,23 L22.1,17.3 L13.9,22.1 L13.9,20 L22.1,15.1 L30.3,20.8 L38.5,15.1 L46.7,20 L46.7,22.1 L46.7,22.1 L46.7,22.1 Z" id="Shape" fill="#444472"></path>
    </g>
</svg>