<?xml version="1.0" standalone="no"?>
<!DOCTYPE svg PUBLIC "-//W3C//DTD SVG 20010904//EN"
 "http://www.w3.org/TR/2001/REC-SVG-20010904/DTD/svg10.dtd">
<svg version="1.0" xmlns="http://www.w3.org/2000/svg"
 width="720.000000pt" height="720.000000pt" viewBox="0 0 720.000000 720.000000"
 preserveAspectRatio="xMidYMid meet">
<metadata>
Created by potrace 1.11, written by Peter Selinger 2001-2013
</metadata>
<g transform="translate(0.000000,720.000000) scale(0.100000,-0.100000)"
fill="#000000" stroke="none">
<path d="M0 3600 l0 -3600 3600 0 3600 0 0 3600 0 3600 -3600 0 -3600 0 0
-3600z m3039 1925 c294 -204 539 -369 544 -367 5 1 272 185 593 407 321 223
590 405 597 405 6 0 275 -157 597 -349 l585 -347 3 -182 c1 -100 0 -182 -2
-182 -3 0 -269 155 -590 345 -322 190 -590 345 -595 345 -5 0 -273 -184 -596
-410 -324 -225 -592 -410 -597 -410 -5 0 -271 183 -591 407 -320 224 -591 407
-602 407 -11 0 -278 -151 -593 -337 -315 -186 -580 -341 -588 -344 -12 -4 -14
23 -14 175 l0 180 598 355 597 355 60 -42 c33 -23 300 -208 594 -411z m2921
-1125 l0 -170 -2385 0 -2385 0 0 170 0 170 2385 0 2385 0 0 -170z m-2080 -765
l0 -165 -1345 0 -1345 0 0 165 0 165 1345 0 1345 0 0 -165z m2080 -5 l0 -170
-820 0 -820 0 0 170 0 170 820 0 820 0 0 -170z m-2487 -729 l407 -324 0 -190
0 -189 -37 28 c-21 16 -209 163 -417 326 l-379 298 -41 -33 c-23 -19 -258
-205 -523 -415 l-482 -382 -405 322 -406 323 0 193 c0 105 2 192 5 192 3 0
159 -122 348 -271 188 -150 370 -294 403 -320 l62 -49 518 414 c286 228 524
411 530 407 6 -3 194 -152 417 -330z m2088 14 l399 -319 0 -194 c0 -154 -3
-192 -12 -185 -7 6 -190 150 -406 321 l-393 311 -97 -76 c-188 -150 -697 -556
-714 -571 -17 -14 -18 -5 -18 184 l0 199 412 328 c226 180 416 326 421 324 5
-1 188 -146 408 -322z m-2093 -927 l402 -319 0 -185 c0 -101 -2 -184 -4 -184
-3 0 -182 140 -398 312 -216 172 -400 312 -408 312 -8 0 -202 -148 -430 -328
-228 -181 -421 -333 -427 -339 -10 -7 -13 31 -13 184 l0 194 428 342 c235 187
432 338 437 335 6 -3 191 -149 413 -324z m2090 7 l401 -310 1 -192 c0 -106 -2
-193 -5 -193 -2 0 -148 113 -322 251 l-318 252 -3 -277 -2 -276 -165 0 -165 0
0 271 c0 167 -4 269 -10 267 -5 -1 -149 -113 -321 -248 -171 -135 -318 -249
-325 -253 -12 -7 -14 23 -14 185 l0 193 413 326 c226 180 417 324 423 320 6
-3 192 -145 412 -316z"/>
</g>
</svg>
